<svg id="svg" version="1.1" xmlns="http://www.w3.org/2000/svg" xmlns:xlink="http://www.w3.org/1999/xlink" width="400" height="400" viewBox="0, 0, 400,400"><g id="svgg"><path id="path0" d="M196.484 76.527 C 195.518 76.917,187.256 80.796,178.125 85.148 C 168.994 89.500,154.756 96.267,146.484 100.186 C 123.887 110.895,124.870 110.334,124.870 112.524 C 124.870 114.239,126.024 115.189,131.229 117.763 L 135.938 120.091 135.938 133.444 L 135.938 146.797 134.965 148.887 C 131.349 156.654,139.323 163.708,146.043 158.685 C 148.850 156.587,149.563 152.176,147.690 148.503 C 146.951 147.055,146.323 125.391,147.020 125.391 C 147.100 125.391,158.570 130.877,172.508 137.582 C 203.534 152.506,198.806 151.598,211.914 145.152 C 222.782 139.807,248.464 127.424,260.352 121.795 C 275.236 114.748,276.927 113.355,274.064 110.502 C 273.290 109.731,214.352 81.339,204.688 77.081 C 201.315 75.596,199.155 75.450,196.484 76.527 M157.025 146.582 C 157.019 158.664,157.390 157.566,151.953 161.570 C 88.682 208.163,121.423 309.401,199.805 309.532 C 278.637 309.663,311.593 208.017,247.852 161.340 C 242.478 157.406,242.969 158.866,242.969 146.800 C 242.969 141.041,242.862 136.328,242.732 136.328 C 242.431 136.328,240.721 137.146,221.680 146.393 C 198.394 157.702,201.222 157.326,187.891 150.880 C 183.916 148.958,175.742 145.049,169.727 142.193 C 163.711 139.338,158.622 136.850,158.418 136.665 C 157.131 135.497,157.031 136.204,157.025 146.582 M213.045 164.012 C 255.859 173.284,277.866 219.172,258.004 257.762 C 240.157 292.438,195.481 303.673,163.243 281.593 C 120.026 251.993,127.333 186.511,176.012 167.173 C 186.451 163.026,202.261 161.677,213.045 164.012 M220.684 193.087 C 214.142 197.234,203.994 203.666,198.132 207.380 C 192.271 211.094,186.974 214.556,186.360 215.072 C 184.892 216.308,185.770 214.386,169.106 252.809 C 159.711 274.473,159.748 274.502,180.078 261.359 C 187.490 256.567,197.921 249.823,203.258 246.373 C 208.594 242.923,213.197 239.735,213.486 239.289 C 213.776 238.842,218.486 228.193,223.954 215.625 C 229.422 203.057,234.355 191.741,234.917 190.479 C 236.126 187.760,236.176 187.056,235.223 186.193 C 233.828 184.931,232.722 185.455,220.684 193.087 M203.123 222.702 C 204.894 223.698,206.250 225.951,206.250 227.898 C 206.250 234.904,196.420 236.808,193.928 230.284 C 191.792 224.689,197.818 219.720,203.123 222.702 " stroke="none" fill="#141717" fill-rule="evenodd"></path><path id="path1" d="M0.000 200.000 L 0.000 400.000 200.000 400.000 L 400.000 400.000 400.000 200.000 L 400.000 0.000 200.000 0.000 L 0.000 0.000 0.000 200.000 M214.844 81.721 C 221.396 84.846,235.898 91.752,247.070 97.067 C 276.722 111.175,275.000 110.210,275.000 112.708 C 275.000 114.786,273.569 115.636,256.250 123.834 C 251.846 125.919,242.881 130.218,236.328 133.387 C 194.801 153.468,201.693 151.670,189.252 145.670 C 168.299 135.566,147.572 125.736,147.465 125.852 C 146.750 126.625,147.184 146.927,147.959 148.940 C 149.861 153.887,148.536 157.862,144.336 159.806 C 137.716 162.871,131.784 155.778,134.961 148.595 C 136.050 146.133,136.235 140.476,135.683 126.488 L 135.429 120.038 130.578 117.566 C 120.530 112.443,120.689 112.265,146.094 100.249 C 156.729 95.218,169.561 89.130,174.609 86.719 C 198.743 75.194,197.482 75.724,200.391 75.893 C 202.718 76.028,203.925 76.515,214.844 81.721 M172.509 143.404 C 180.647 147.295,189.477 151.514,192.132 152.780 C 199.840 156.454,200.623 156.404,210.592 151.603 C 237.277 138.750,242.360 136.328,242.645 136.328 C 242.823 136.328,242.969 140.799,242.969 146.264 C 242.969 158.219,242.664 157.321,248.114 161.437 C 294.079 196.146,292.662 264.145,245.313 295.908 C 200.364 326.059,139.473 304.884,122.530 253.210 C 111.291 218.932,122.494 184.037,152.010 161.387 L 156.445 157.984 156.700 155.847 C 156.840 154.672,156.971 149.800,156.993 145.020 C 157.014 140.239,157.185 136.328,157.372 136.328 C 157.560 136.328,164.371 139.512,172.509 143.404 M192.969 163.133 C 127.118 171.339,112.956 259.424,173.049 287.034 C 228.628 312.570,285.538 253.334,258.181 198.421 C 246.377 174.726,218.967 159.894,192.969 163.133 M235.804 187.022 C 235.943 187.576,235.873 188.481,235.649 189.034 C 234.427 192.045,214.838 236.770,214.164 238.086 C 213.048 240.267,214.286 239.400,189.103 255.620 C 157.841 275.755,158.899 276.058,170.138 250.195 C 174.152 240.957,178.987 229.821,180.882 225.450 C 184.705 216.629,185.405 215.417,187.455 214.069 C 192.520 210.737,232.338 185.635,232.813 185.474 C 233.886 185.111,235.539 185.966,235.804 187.022 M196.956 222.526 C 193.219 224.368,192.390 229.439,195.343 232.392 C 198.498 235.547,203.756 234.627,205.533 230.610 C 207.929 225.193,202.304 219.891,196.956 222.526 " stroke="none" fill="#fbfbfb" fill-rule="evenodd"></path><path id="path2" d="M146.987 134.180 C 146.990 135.254,147.066 135.647,147.155 135.053 C 147.245 134.459,147.243 133.581,147.150 133.100 C 147.057 132.620,146.984 133.105,146.987 134.180 " stroke="none" fill="#7c7c7c" fill-rule="evenodd"></path><path id="path3" d="M135.683 125.391 C 135.683 127.217,135.751 127.964,135.833 127.051 C 135.915 126.138,135.915 124.644,135.833 123.730 C 135.751 122.817,135.683 123.564,135.683 125.391 M147.018 139.648 C 147.019 141.797,147.084 142.626,147.163 141.491 C 147.243 140.356,147.242 138.598,147.162 137.585 C 147.081 136.571,147.017 137.500,147.018 139.648 M156.731 155.469 C 156.731 156.221,156.812 156.528,156.910 156.152 C 157.008 155.776,157.008 155.161,156.910 154.785 C 156.812 154.409,156.731 154.717,156.731 155.469 M142.383 285.938 C 143.222 286.797,143.996 287.500,144.104 287.500 C 144.211 287.500,143.613 286.797,142.773 285.938 C 141.934 285.078,141.160 284.375,141.052 284.375 C 140.945 284.375,141.544 285.078,142.383 285.938 " stroke="none" fill="#a0a1a1" fill-rule="evenodd"></path><path id="path4" d="M147.011 129.297 C 147.011 131.123,147.079 131.870,147.161 130.957 C 147.243 130.044,147.243 128.550,147.161 127.637 C 147.079 126.724,147.011 127.471,147.011 129.297 M257.015 169.238 C 258.634 170.963,258.984 171.273,258.984 170.980 C 258.984 170.917,258.149 170.082,257.129 169.124 L 255.273 167.383 257.015 169.238 M257.409 285.840 L 255.273 288.086 257.520 285.951 C 259.606 283.967,259.945 283.594,259.655 283.594 C 259.594 283.594,258.583 284.604,257.409 285.840 " stroke="none" fill="#747c7c" fill-rule="evenodd"></path></g></svg>